<?xml version="1.0" standalone="no"?>
<!DOCTYPE svg PUBLIC "-//W3C//DTD SVG 20010904//EN"
 "http://www.w3.org/TR/2001/REC-SVG-20010904/DTD/svg10.dtd">
<svg version="1.0" xmlns="http://www.w3.org/2000/svg"
 width="490.000000pt" height="490.000000pt" viewBox="0 0 490.000000 490.000000"
 preserveAspectRatio="xMidYMid meet">
<metadata>
Created by potrace 1.11, written by Peter Selinger 2001-2013
</metadata>
<g transform="translate(0.000000,490.000000) scale(0.100000,-0.100000)"
fill="#000000" stroke="none">
<path d="M2280 4244 c-168 -170 -284 -264 -398 -322 -184 -95 -359 -159 -593
-217 -190 -47 -209 -56 -209 -96 0 -46 86 -129 164 -158 49 -18 63 -19 109
-10 86 17 144 38 312 111 339 147 488 234 712 418 6 5 56 41 110 79 128 90
158 122 144 149 -17 33 -88 88 -161 126 -37 20 -70 36 -71 36 -2 0 -56 -52
-119 -116z"/>
<path d="M4287 4124 c-80 -17 -397 -125 -558 -190 -63 -25 -154 -62 -204 -81
-49 -18 -108 -42 -130 -52 -22 -10 -137 -55 -255 -100 -358 -137 -536 -217
-754 -341 -56 -32 -65 -34 -160 -35 -109 -1 -131 -8 -184 -58 -38 -36 -62
-107 -62 -181 0 -42 -8 -63 -54 -140 -66 -110 -75 -148 -41 -182 39 -39 78
-32 170 31 54 37 83 51 91 44 12 -10 19 -40 58 -259 32 -178 44 -277 54 -435
9 -172 9 -735 -1 -855 -8 -102 -41 -332 -56 -402 -6 -24 -15 -72 -20 -108 -6
-36 -13 -76 -16 -90 -22 -102 24 -173 99 -154 86 21 263 364 285 553 8 67 6
872 -3 961 -2 19 -6 82 -10 140 -4 58 -9 116 -11 130 -2 14 -6 77 -10 140 -14
267 -23 372 -46 519 -11 72 -9 77 55 120 83 57 503 270 696 354 295 128 667
258 1028 357 164 46 212 50 212 21 0 -30 26 -50 56 -45 86 16 174 102 174 170
0 42 -72 127 -135 161 -40 22 -180 25 -268 7z"/>
<path d="M1549 3470 c-31 -16 -80 -65 -130 -126 -8 -11 -43 -62 -76 -114 -34
-52 -76 -116 -95 -143 l-33 -47 -29 32 c-115 130 -149 158 -188 158 -40 0 -59
-29 -52 -81 3 -24 9 -57 14 -74 10 -36 18 -124 25 -300 3 -71 11 -149 16 -172
20 -76 180 -246 243 -257 22 -4 35 1 55 22 26 26 27 32 30 142 1 63 6 146 12
184 9 70 57 201 110 308 28 56 57 89 45 52 -13 -42 -76 -323 -84 -376 -7 -47
-6 -65 9 -97 21 -47 60 -84 97 -92 63 -13 106 36 202 229 166 332 253 593 211
635 -22 22 -50 -8 -136 -149 l-30 -49 -6 91 c-6 98 -16 120 -81 180 -35 32
-79 64 -88 64 -3 -1 -21 -9 -41 -20z"/>
<path d="M587 3404 c-10 -3 -48 -23 -85 -44 -64 -36 -67 -37 -70 -16 -10 59
-54 49 -115 -26 -84 -104 -89 -118 -88 -223 2 -146 60 -301 120 -320 22 -7 77
18 101 45 27 30 53 38 150 44 256 18 298 32 278 98 -10 33 -5 58 37 212 30
105 9 145 -104 199 -49 23 -80 31 -135 33 -39 2 -79 0 -89 -2z m13 -227 c0
-25 -98 -107 -128 -107 -19 0 -22 33 -5 53 16 18 107 67 126 67 4 0 7 -6 7
-13z"/>
</g>
</svg>
